<svg width="204" height="244" viewBox="0 0 204 244" fill="none" xmlns="http://www.w3.org/2000/svg">
<path fill-rule="evenodd" clip-rule="evenodd" d="M66.2094 0L28.4154 2.755V13.001L36.3624 12.703L37.8374 45.275L60.3734 67.689L60.0954 9.661L66.2094 9.039V0Z" fill="#8B4700"/>
<path fill-rule="evenodd" clip-rule="evenodd" d="M66.2094 0L32.1164 2.485L35.4444 7.462L66.2094 5.93V0Z" fill="#B75E00"/>
<path fill-rule="evenodd" clip-rule="evenodd" d="M175.943 181.182L177.122 202.315L180.485 197.906C181.172 197.005 182.589 197.77 182.214 198.838L177.79 211.418L178.515 229.839H169.77V181.182H175.943Z" fill="#7E6467"/>
<path fill-rule="evenodd" clip-rule="evenodd" d="M148.62 126.49L150.355 92.4851L188.367 67.6891L203.428 141.681L183.893 191.101L157.32 183.804L148.62 126.49Z" fill="#B5D55A"/>
<path fill-rule="evenodd" clip-rule="evenodd" d="M150.354 92.4853L162.379 84.6403L187.207 149.958L203.427 141.681L183.892 191.101L157.319 183.804L148.619 126.49L150.354 92.4853Z" fill="#A4B55C"/>
<path fill-rule="evenodd" clip-rule="evenodd" d="M7.61359 229.839L4.58859 219.538L17.1846 182.921L49.0026 195.435L50.4596 214.397L46.9886 229.839H7.61359Z" fill="#B5D55A"/>
<path fill-rule="evenodd" clip-rule="evenodd" d="M7.61359 229.839L4.58859 219.538L21.3476 223.171L38.9366 191.476L49.0026 195.435L50.4596 214.397L46.9886 229.839H7.61359Z" fill="#A4B55C"/>
<path fill-rule="evenodd" clip-rule="evenodd" d="M168.115 17.3334L27.5241 29.5464L32.5271 229.838H161.611L168.115 17.3334Z" fill="#F71117"/>
<path fill-rule="evenodd" clip-rule="evenodd" d="M161.611 229.839L163.438 170.136L121.799 191.488L118.531 207.118L103.415 211.921L47.0152 229.839H161.611Z" fill="#D3080D"/>
<path fill-rule="evenodd" clip-rule="evenodd" d="M167.79 27.9413L167.327 43.0703L27.7424 41.8443V38.2883L167.79 27.9413Z" fill="#CE0514"/>
<path fill-rule="evenodd" clip-rule="evenodd" d="M176.023 12.606V27.314L17.7163 39.394V22.586L176.023 12.606Z" fill="#7E6467"/>
<path fill-rule="evenodd" clip-rule="evenodd" d="M44.4056 57.2147C44.5526 57.8917 46.1656 91.4467 46.1656 91.4467L74.9076 89.0107L77.9876 57.2147H44.4056Z" fill="white"/>
<path fill-rule="evenodd" clip-rule="evenodd" d="M48.6585 88.5995C47.8915 71.6155 47.5075 63.6845 47.3035 59.9205H74.9935L72.5925 86.4295L48.6585 88.5995Z" fill="#7595AE"/>
<path fill-rule="evenodd" clip-rule="evenodd" d="M53.286 59.9208C51.453 61.9368 49.529 63.7858 47.593 65.6218C47.675 67.3028 47.77 69.3038 47.882 71.6698C51.416 67.8578 54.952 64.0428 58.333 59.9208H53.286Z" fill="#93ACBF"/>
<path fill-rule="evenodd" clip-rule="evenodd" d="M60.5614 59.9208C56.4734 65.2328 52.2924 70.4048 48.0644 75.5878C48.0944 76.2358 48.1254 76.9158 48.1574 77.6098C52.8484 71.9008 57.4024 65.7768 62.1304 59.9208H60.5614Z" fill="#93ACBF"/>
<path fill-rule="evenodd" clip-rule="evenodd" d="M74.8793 61.1903C66.2483 70.0313 57.5253 78.5683 48.5533 86.2873C48.5873 87.0403 48.6223 87.8053 48.6583 88.5993L49.9833 88.4783C58.2733 81.2783 66.3503 73.1883 74.5083 65.2853L74.8793 61.1903Z" fill="#93ACBF"/>
<path fill-rule="evenodd" clip-rule="evenodd" d="M74.1825 68.8817C67.6735 75.9617 60.6835 81.6137 54.0415 88.1107L57.5825 87.7897C63.2235 83.2077 68.6195 78.1967 73.8415 72.6477L74.1825 68.8817Z" fill="#93ACBF"/>
<path fill-rule="evenodd" clip-rule="evenodd" d="M59.2948 58.3417V88.5997H61.9418L62.8248 58.3417H59.2948Z" fill="white"/>
<path fill-rule="evenodd" clip-rule="evenodd" d="M74.7088 71.6669H47.4108V74.3729L74.7088 75.2739V71.6669Z" fill="white"/>
<path fill-rule="evenodd" clip-rule="evenodd" d="M76.5028 88.5995L44.8458 90.7705L45.2858 95.3245L75.9528 93.8025L76.5028 88.5995Z" fill="#7E6467"/>
<path fill-rule="evenodd" clip-rule="evenodd" d="M44.4056 113.111C44.5526 113.788 46.1656 147.343 46.1656 147.343L74.9076 144.907L77.9876 113.111H44.4056Z" fill="white"/>
<path fill-rule="evenodd" clip-rule="evenodd" d="M48.6585 144.496C47.8915 127.512 47.5075 119.582 47.3035 115.817H74.9935L72.5925 142.327L48.6585 144.496Z" fill="#7595AE"/>
<path fill-rule="evenodd" clip-rule="evenodd" d="M53.286 115.817C51.453 117.834 49.529 119.682 47.593 121.519C47.675 123.199 47.77 125.2 47.882 127.566C51.416 123.755 54.952 119.939 58.333 115.817H53.286Z" fill="#93ACBF"/>
<path fill-rule="evenodd" clip-rule="evenodd" d="M60.5614 115.817C56.4734 121.129 52.2924 126.302 48.0644 131.484C48.0944 132.133 48.1254 132.812 48.1574 133.506C52.8484 127.797 57.4024 121.673 62.1304 115.817H60.5614Z" fill="#93ACBF"/>
<path fill-rule="evenodd" clip-rule="evenodd" d="M74.8793 117.088C66.2483 125.928 57.5253 134.465 48.5533 142.184C48.5873 142.937 48.6223 143.703 48.6583 144.496L49.9833 144.376C58.2733 137.175 66.3503 129.085 74.5083 121.182L74.8793 117.088Z" fill="#93ACBF"/>
<path fill-rule="evenodd" clip-rule="evenodd" d="M74.1825 124.779C67.6735 131.858 60.6835 137.511 54.0415 144.008L57.5825 143.687C63.2235 139.105 68.6195 134.093 73.8415 128.544L74.1825 124.779Z" fill="#93ACBF"/>
<path fill-rule="evenodd" clip-rule="evenodd" d="M59.2948 114.239V144.496H61.9418L62.8248 114.239H59.2948Z" fill="white"/>
<path fill-rule="evenodd" clip-rule="evenodd" d="M74.7088 127.563H47.4108V130.269L74.7088 131.171V127.563Z" fill="white"/>
<path fill-rule="evenodd" clip-rule="evenodd" d="M76.5028 144.496L44.8458 146.667L45.2858 151.222L75.9528 149.699L76.5028 144.496Z" fill="#7E6467"/>
<path fill-rule="evenodd" clip-rule="evenodd" d="M117.651 57.2147C117.797 57.8917 119.411 91.4467 119.411 91.4467L148.153 89.0107L151.233 57.2147H117.651Z" fill="white"/>
<path fill-rule="evenodd" clip-rule="evenodd" d="M121.904 88.5995C121.138 71.6155 120.753 63.6845 120.549 59.9205H148.24L145.839 86.4295L121.904 88.5995Z" fill="#7595AE"/>
<path fill-rule="evenodd" clip-rule="evenodd" d="M126.532 59.9208C124.699 61.9368 122.775 63.7858 120.839 65.6218C120.921 67.3028 121.016 69.3038 121.128 71.6698C124.662 67.8578 128.198 64.0428 131.579 59.9208H126.532Z" fill="#93ACBF"/>
<path fill-rule="evenodd" clip-rule="evenodd" d="M133.807 59.9208C129.719 65.2328 125.538 70.4048 121.31 75.5878C121.34 76.2358 121.371 76.9158 121.403 77.6098C126.094 71.9008 130.648 65.7768 135.376 59.9208H133.807Z" fill="#93ACBF"/>
<path fill-rule="evenodd" clip-rule="evenodd" d="M148.124 61.1903C139.494 70.0313 130.771 78.5683 121.799 86.2873C121.833 87.0403 121.868 87.8053 121.903 88.5993L123.229 88.4783C131.518 81.2783 139.596 73.1883 147.753 65.2853L148.124 61.1903Z" fill="#93ACBF"/>
<path fill-rule="evenodd" clip-rule="evenodd" d="M147.428 68.8817C140.919 75.9617 133.929 81.6137 127.287 88.1107L130.828 87.7897C136.47 83.2077 141.866 78.1967 147.087 72.6477L147.428 68.8817Z" fill="#93ACBF"/>
<path fill-rule="evenodd" clip-rule="evenodd" d="M132.54 58.3417V88.5997H135.188L136.07 58.3417H132.54Z" fill="white"/>
<path fill-rule="evenodd" clip-rule="evenodd" d="M147.954 71.6669H120.655V74.3729L147.954 75.2739V71.6669Z" fill="white"/>
<path fill-rule="evenodd" clip-rule="evenodd" d="M149.748 88.5995L118.091 90.7705L118.531 95.3245L149.198 93.8025L149.748 88.5995Z" fill="#7E6467"/>
<path fill-rule="evenodd" clip-rule="evenodd" d="M117.651 113.111C117.797 113.788 119.411 147.343 119.411 147.343L148.153 144.907L151.233 113.111H117.651Z" fill="white"/>
<path fill-rule="evenodd" clip-rule="evenodd" d="M121.904 144.496C121.138 127.512 120.753 119.582 120.549 115.817H148.24L145.839 142.327L121.904 144.496Z" fill="#7595AE"/>
<path fill-rule="evenodd" clip-rule="evenodd" d="M126.532 115.817C124.699 117.834 122.775 119.682 120.839 121.519C120.921 123.199 121.016 125.2 121.128 127.566C124.662 123.755 128.198 119.939 131.579 115.817H126.532Z" fill="#93ACBF"/>
<path fill-rule="evenodd" clip-rule="evenodd" d="M133.807 115.817C129.719 121.129 125.538 126.302 121.31 131.484C121.34 132.133 121.371 132.812 121.403 133.506C126.094 127.797 130.648 121.673 135.376 115.817H133.807Z" fill="#93ACBF"/>
<path fill-rule="evenodd" clip-rule="evenodd" d="M148.124 117.088C139.494 125.928 130.771 134.465 121.799 142.184C121.833 142.937 121.868 143.703 121.903 144.496L123.229 144.376C131.518 137.175 139.596 129.085 147.753 121.182L148.124 117.088Z" fill="#93ACBF"/>
<path fill-rule="evenodd" clip-rule="evenodd" d="M147.428 124.779C140.919 131.858 133.929 137.511 127.287 144.008L130.828 143.687C136.47 139.105 141.866 134.093 147.087 128.544L147.428 124.779Z" fill="#93ACBF"/>
<path fill-rule="evenodd" clip-rule="evenodd" d="M132.54 114.239V144.496H135.188L136.07 114.239H132.54Z" fill="white"/>
<path fill-rule="evenodd" clip-rule="evenodd" d="M147.954 127.563H120.655V130.269L147.954 131.171V127.563Z" fill="white"/>
<path fill-rule="evenodd" clip-rule="evenodd" d="M149.748 144.496L118.091 146.667L118.531 151.222L149.198 149.699L149.748 144.496Z" fill="#7E6467"/>
<path fill-rule="evenodd" clip-rule="evenodd" d="M117.651 169.008C117.797 169.685 119.411 203.24 119.411 203.24L148.153 200.804L151.233 169.008H117.651Z" fill="white"/>
<path fill-rule="evenodd" clip-rule="evenodd" d="M121.904 200.393C121.138 183.41 120.753 175.479 120.549 171.714H148.24L145.839 198.224L121.904 200.393Z" fill="#7595AE"/>
<path fill-rule="evenodd" clip-rule="evenodd" d="M126.532 171.714C124.699 173.731 122.775 175.579 120.839 177.416C120.921 179.097 121.016 181.097 121.128 183.463C124.662 179.652 128.198 175.836 131.579 171.714H126.532Z" fill="#93ACBF"/>
<path fill-rule="evenodd" clip-rule="evenodd" d="M133.807 171.714C129.719 177.026 125.538 182.199 121.31 187.381C121.34 188.03 121.371 188.71 121.403 189.403C126.094 183.695 130.648 177.57 135.376 171.714H133.807Z" fill="#93ACBF"/>
<path fill-rule="evenodd" clip-rule="evenodd" d="M148.124 172.984C139.494 181.825 130.771 190.362 121.799 198.081C121.833 198.833 121.868 199.599 121.903 200.392L123.229 200.272C131.518 193.072 139.596 184.981 147.753 177.079L148.124 172.984Z" fill="#93ACBF"/>
<path fill-rule="evenodd" clip-rule="evenodd" d="M147.428 180.676C140.919 187.756 133.929 193.408 127.287 199.905L130.828 199.584C136.47 195.002 141.866 189.99 147.087 184.441L147.428 180.676Z" fill="#93ACBF"/>
<path fill-rule="evenodd" clip-rule="evenodd" d="M132.54 170.136V200.393H135.188L136.07 170.136H132.54Z" fill="white"/>
<path fill-rule="evenodd" clip-rule="evenodd" d="M147.954 183.46H120.655V186.166L147.954 187.068V183.46Z" fill="white"/>
<path fill-rule="evenodd" clip-rule="evenodd" d="M149.748 200.392L118.091 202.564L118.531 207.118L149.198 205.595L149.748 200.392Z" fill="#7E6467"/>
<path fill-rule="evenodd" clip-rule="evenodd" d="M47.015 229.839L42.693 170.216L80.191 168.164L76.275 229.839H47.015Z" fill="#888D98"/>
<path fill-rule="evenodd" clip-rule="evenodd" d="M50.1615 229.839L46.3155 173.405L76.5745 171.749L73.1005 229.839H50.1615Z" fill="#F3F3F3"/>
<path fill-rule="evenodd" clip-rule="evenodd" d="M73.1009 229.839L53.5379 213.805L51.5149 173.12L46.3149 173.405L50.1619 229.839H73.1009Z" fill="white"/>
<path fill-rule="evenodd" clip-rule="evenodd" d="M70.9574 195.698H68.0984L67.2924 201.888H70.9574V195.698Z" fill="#7E6467"/>
<path fill-rule="evenodd" clip-rule="evenodd" d="M75.953 93.8026L55.098 101.168L45.286 95.3236L75.953 93.8026Z" fill="#DC5F4A"/>
<path fill-rule="evenodd" clip-rule="evenodd" d="M178.515 229.839H125.835C120.78 232.494 115.726 235.12 110.704 237.793H189.09L178.515 229.839Z" fill="#A4B55C"/>
<mask id="mask0" mask-type="alpha" maskUnits="userSpaceOnUse" x="0" y="229" width="126" height="15">
<path fill-rule="evenodd" clip-rule="evenodd" d="M0 229.839H125.835V243.333H0V229.839Z" fill="white"/>
</mask>
<g mask="url(#mask0)">
<path fill-rule="evenodd" clip-rule="evenodd" d="M7.6136 229.839L-0.000396729 237.793L70.9576 236.586L69.1256 243.333L82.2886 236.586L80.1916 243.333L95.2456 234.498L91.7436 241.233L102.249 237.793H110.704C115.726 235.12 120.781 232.494 125.835 229.839H7.6136Z" fill="#B5D55A"/>
</g>
</svg>
