<?xml version="1.0" encoding="iso-8859-1"?>
<!-- Generator: Adobe Illustrator 19.0.0, SVG Export Plug-In . SVG Version: 6.00 Build 0)  -->
<svg version="1.1" id="Layer_1" xmlns="http://www.w3.org/2000/svg" xmlns:xlink="http://www.w3.org/1999/xlink" x="0px" y="0px"
	 viewBox="0 0 480 480" style="enable-background:new 0 0 480 480;" xml:space="preserve">
<g>
	<circle style="fill:#FDD38D;" cx="56" cy="88" r="48"/>
	<circle style="fill:#FDD38D;" cx="424" cy="168" r="48"/>
</g>
<rect x="88" y="264" style="fill:#FCB641;" width="304" height="208"/>
<g>
	<rect x="216" y="264" style="fill:#BD8931;" width="48" height="64"/>
	<rect x="216" y="424" style="fill:#BD8931;" width="48" height="48"/>
</g>
<path style="fill:#E65039;" d="M336,328h-24v-16c0-8.84,7.16-16,16-16h24v16C352,320.84,344.84,328,336,328z"/>
<path style="fill:#FADCD7;" d="M248,184h-16c-35.344,0-64-28.656-64-64V72h144v48C312,155.344,283.344,184,248,184z"/>
<path style="fill:#E65039;" d="M320,72H176c-8.84,0-16-7.16-16-16l0,0c0-26.512,21.488-48,48-48h64c26.512,0,48,21.488,48,48V72z"/>
<path style="fill:#EB7361;" d="M272,8h-64c-26.512,0-48,21.488-48,48c0,2.04,0.416,3.976,1.12,5.776C165.808,40.184,185,24,208,24
	h64c26.512,0,48,21.488,48,48V56C320,29.488,298.512,8,272,8z"/>
<path style="fill:#AD3C2B;" d="M272,72h-64l0,0c0-17.672,14.328-32,32-32l0,0C257.672,40,272,54.328,272,72L272,72z"/>
<path style="fill:#3684C1;" d="M314.336,184H165.664c-13.088,0-24.848,7.968-29.712,20.112L112,264h256l-23.952-59.888
	C339.184,191.968,327.416,184,314.336,184z"/>
<polygon style="fill:#AFCEE6;" points="280,184 240,232 200,184 "/>
<g>
	<path style="fill:#132C47;" d="M112,88c0-30.88-25.12-56-56-56S0,57.12,0,88s25.12,56,56,56S112,118.88,112,88z M56,128
		c-22.056,0-40-17.944-40-40s17.944-40,40-40s40,17.944,40,40S78.056,128,56,128z"/>
	<path style="fill:#132C47;" d="M75.576,64.84c-3.96-1.976-8.76-0.368-10.736,3.576L53.808,90.488l-8.152-8.152
		c-3.128-3.128-8.184-3.128-11.312,0s-3.128,8.184,0,11.312l16,16C51.856,111.168,53.896,112,56,112c0.424,0,0.856-0.032,1.28-0.104
		c2.536-0.416,4.72-2.016,5.872-4.32l16-32C81.136,71.624,79.528,66.824,75.576,64.84z"/>
	<path style="fill:#132C47;" d="M465.16,130.152l4.496-4.496c3.128-3.128,3.128-8.184,0-11.312s-8.184-3.128-11.312,0L452.688,120
		c-6.224-3.736-13.216-6.28-20.688-7.36V104h8c4.416,0,8-3.584,8-8s-3.584-8-8-8h-32c-4.416,0-8,3.584-8,8s3.584,8,8,8h8v8.64
		c-7.48,1.08-14.464,3.624-20.688,7.36l-5.656-5.656c-3.128-3.128-8.184-3.128-11.312,0c-3.128,3.128-3.128,8.184,0,11.312
		l4.496,4.496C373.664,140.136,368,153.4,368,168c0,30.88,25.12,56,56,56s56-25.12,56-56C480,153.4,474.336,140.136,465.16,130.152z
		 M424,208c-22.056,0-40-17.944-40-40s17.944-40,40-40s40,17.944,40,40S446.056,208,424,208z"/>
	<path style="fill:#132C47;" d="M434.528,144.408c-4.216-1.408-8.72,0.872-10.12,5.056L418.232,168H408c-4.416,0-8,3.584-8,8
		s3.584,8,8,8h16c3.448,0,6.496-2.2,7.592-5.472l8-24C440.992,150.336,438.72,145.808,434.528,144.408z"/>
	<path style="fill:#132C47;" d="M392,256h-18.584l-21.944-54.848c-6.104-15.28-20.68-25.152-37.136-25.152h-21.184
		C309.504,162.792,320,142.608,320,120V88h40c4.416,0,8-3.584,8-8s-3.584-8-8-8h-32V56c0-30.88-25.12-56-56-56h-64
		c-30.88,0-56,25.12-56,56c0,7.064,3.128,13.36,8,17.76V120c0,22.608,10.496,42.792,26.848,56h-21.184
		c-16.456,0-31.032,9.872-37.144,25.144L106.584,256H88c-4.416,0-8,3.584-8,8v208c0,4.416,3.584,8,8,8h128h48h128
		c4.416,0,8-3.584,8-8V264C400,259.584,396.416,256,392,256z M262.92,192L240,219.504L217.08,192H232h16H262.92z M208,16h64
		c22.056,0,40,17.944,40,40v8h-32.808c-3.72-18.232-19.88-32-39.192-32s-35.472,13.768-39.192,32H176c-4.408,0-8-3.592-8-8
		C168,33.944,185.944,16,208,16z M217.368,64c3.304-9.312,12.2-16,22.632-16s19.328,6.688,22.632,16H217.368z M176,120V80h19.056
		l-2.208,4.424c-1.976,3.952-0.376,8.76,3.576,10.736c1.144,0.568,2.368,0.84,3.568,0.84c2.936,0,5.76-1.616,7.168-4.424L212.944,80
		h14.112l-2.208,4.424c-1.976,3.952-0.376,8.76,3.576,10.736c1.144,0.568,2.368,0.84,3.568,0.84c2.936,0,5.76-1.616,7.168-4.424
		L244.944,80H272h32v40c0,30.88-25.12,56-56,56h-16C201.12,176,176,150.88,176,120z M143.384,207.088
		c3.664-9.168,12.408-15.088,22.28-15.088h30.592l37.6,45.12c1.52,1.824,3.768,2.88,6.144,2.88s4.624-1.056,6.144-2.88l37.6-45.12
		h30.592c9.872,0,18.616,5.92,22.28,15.088L356.184,256H316.28l-13.624-20.44c-2.456-3.672-7.424-4.68-11.096-2.216
		c-3.672,2.448-4.664,7.416-2.216,11.096l7.712,11.56H264h-48h-28.896l4.488-13.472c1.4-4.192-0.864-8.72-5.056-10.12
		c-4.216-1.416-8.72,0.872-10.12,5.056L170.232,256h-46.416L143.384,207.088z M224,272h32v48h-32V272z M224,464v-32h32v32H224z
		 M384,464H272v-40c0-4.416-3.584-8-8-8h-48c-4.416,0-8,3.584-8,8v40H96V272h16h63.976c0.008,0,0.016,0,0.024,0s0.016,0,0.024,0H208
		v56c0,4.416,3.584,8,8,8h48c4.416,0,8-3.584,8-8v-56h96h16V464z"/>
	<path style="fill:#132C47;" d="M128,304h24c4.416,0,8-3.584,8-8s-3.584-8-8-8h-24c-4.416,0-8,3.584-8,8S123.584,304,128,304z"/>
	<path style="fill:#132C47;" d="M168,320h-40c-4.416,0-8,3.584-8,8s3.584,8,8,8h40c4.416,0,8-3.584,8-8S172.416,320,168,320z"/>
	<path style="fill:#132C47;" d="M352,400h-24c-4.416,0-8,3.584-8,8s3.584,8,8,8h24c4.416,0,8-3.584,8-8S356.416,400,352,400z"/>
	<path style="fill:#132C47;" d="M352,432h-40c-4.416,0-8,3.584-8,8s3.584,8,8,8h40c4.416,0,8-3.584,8-8S356.416,432,352,432z"/>
	<path style="fill:#132C47;" d="M352,288h-24c-13.232,0-24,10.768-24,24v16c0,4.416,3.584,8,8,8h24c13.232,0,24-10.768,24-24v-16
		C360,291.584,356.416,288,352,288z M344,312c0,4.408-3.592,8-8,8h-16v-8c0-4.408,3.592-8,8-8h16V312z"/>
	<path style="fill:#132C47;" d="M240,160c17.648,0,32-14.352,32-32c0-4.416-3.584-8-8-8s-8,3.584-8,8c0,8.824-7.176,16-16,16
		s-16-7.176-16-16c0-4.416-3.584-8-8-8s-8,3.584-8,8C208,145.648,222.352,160,240,160z"/>
</g>
<g>
</g>
<g>
</g>
<g>
</g>
<g>
</g>
<g>
</g>
<g>
</g>
<g>
</g>
<g>
</g>
<g>
</g>
<g>
</g>
<g>
</g>
<g>
</g>
<g>
</g>
<g>
</g>
<g>
</g>
</svg>
