<?xml version="1.0" encoding="iso-8859-1"?>
<!-- Generator: Adobe Illustrator 16.0.0, SVG Export Plug-In . SVG Version: 6.00 Build 0)  -->
<!DOCTYPE svg PUBLIC "-//W3C//DTD SVG 1.1//EN" "http://www.w3.org/Graphics/SVG/1.1/DTD/svg11.dtd">
<svg version="1.1" id="Capa_1" xmlns="http://www.w3.org/2000/svg" xmlns:xlink="http://www.w3.org/1999/xlink" x="0px" y="0px"
	 width="612px" height="612px" viewBox="0 0 612 612" style="enable-background:new 0 0 612 612;" xml:space="preserve">
<g>
	<path d="M580.592,135.703L497.33,98.681L234.478,222.254v79.353l-45.854-20.389v-79.353L451.477,78.293l-88.287-39.256
		c-11.822-5.256-31.166-5.256-42.987,0l-217.401,96.666c-17.319,7.701-31.453,29.51-31.409,48.464l0.339,143.238
		c13.628-4.385,28.128-6.806,43.195-6.806c77.949,0,141.373,63.424,141.373,141.382c0,20.36-4.413,39.682-12.196,57.188
		l76.764,32.815c11.436,4.888,30.146,4.889,41.583,0.002l216.905-92.694c17.614-7.527,32.062-29.357,32.107-48.513L612,184.166
		C612.044,165.212,597.911,143.403,580.592,135.703z M496.655,300.16l29.458-62.149c2.974-6.273,10.429-9.892,13.413-6.49
		l30.229,34.461c3.019,3.441-0.812,11.277-6.869,14.087l-12.724,5.903l-0.257,89.528c-0.012,3.912-3.467,8.569-7.708,10.399
		l-19.049,8.223c-4.176,1.803-7.554,0.132-7.556-3.729l-0.064-88.354l-12.325,5.718C497.407,310.446,493.778,306.23,496.655,300.16z
		 M388.039,350.943l26.773-59.078c2.7-5.959,9.604-9.312,12.422-6.012l28.532,33.423c2.85,3.336-0.628,10.779-6.237,13.381
		l-11.782,5.466l0.76,85.727c0.033,3.749-3.135,8.163-7.066,9.86l-17.664,7.625c-3.873,1.672-7.042,0.025-7.087-3.675l-1.035-84.647
		l-11.429,5.302C388.852,360.808,385.422,356.718,388.039,350.943z M583.911,399.271c-0.014,1.967-1.781,4.298-3.946,5.208
		l-201.751,84.757c-1.883,0.791-3.432-0.037-3.459-1.851l-0.155-9.861c-0.028-1.817,1.476-3.942,3.361-4.745l202.111-86.097
		c2.17-0.924,3.92-0.075,3.908,1.896L583.911,399.271z M114.925,347.054C51.454,347.054,0,398.508,0,461.979
		c0,63.472,51.454,114.926,114.925,114.926s114.925-51.454,114.925-114.926C229.851,398.508,178.396,347.054,114.925,347.054z
		 M190.021,438.367l-70.724,79.563c-3.484,3.919-8.335,5.932-13.221,5.932c-3.881,0-7.783-1.27-11.038-3.877l-44.202-35.361
		c-7.624-6.095-8.862-17.223-2.759-24.846c6.095-7.632,17.228-8.867,24.851-2.763l31.093,24.872l59.574-67.02
		c6.479-7.295,17.659-7.959,24.958-1.468C195.853,419.893,196.509,431.063,190.021,438.367z"/>
</g>
<g>
</g>
<g>
</g>
<g>
</g>
<g>
</g>
<g>
</g>
<g>
</g>
<g>
</g>
<g>
</g>
<g>
</g>
<g>
</g>
<g>
</g>
<g>
</g>
<g>
</g>
<g>
</g>
<g>
</g>
</svg>
