<svg width="234" height="211" viewBox="0 0 234 211" fill="none" xmlns="http://www.w3.org/2000/svg">
<path fill-rule="evenodd" clip-rule="evenodd" d="M18.168 210.654H213.132V51.438H18.168V210.654ZM26.184 199.866H86.484V91.854H26.184V199.866ZM95.052 165.99H205.2V93.222H95.052V165.99Z" fill="#BFBFBF"/>
<path fill-rule="evenodd" clip-rule="evenodd" d="M0 78.882H233.892V8.21399H0V78.882Z" fill="white"/>
<path fill-rule="evenodd" clip-rule="evenodd" d="M0 78.882H20.16V8.21399H0V78.882Z" fill="#F71117"/>
<path fill-rule="evenodd" clip-rule="evenodd" d="M42.6 78.882H62.796V8.21399H42.6V78.882Z" fill="#F71117"/>
<path fill-rule="evenodd" clip-rule="evenodd" d="M85.248 78.882H105.42V8.21399H85.248V78.882Z" fill="#F71117"/>
<path fill-rule="evenodd" clip-rule="evenodd" d="M127.872 78.882H148.056V8.21399H127.872V78.882Z" fill="#F71117"/>
<path fill-rule="evenodd" clip-rule="evenodd" d="M170.496 78.882H190.668V8.21399H170.496V78.882Z" fill="#F71117"/>
<path fill-rule="evenodd" clip-rule="evenodd" d="M213.132 78.882H233.304V8.21399H213.132V78.882Z" fill="#F71117"/>
<path fill-rule="evenodd" clip-rule="evenodd" d="M0 8.214H233.304V3.786H0V8.214Z" fill="#D81E00"/>
<path fill-rule="evenodd" clip-rule="evenodd" d="M0 86.898H233.304V73.986H0V86.898Z" fill="#D5060C"/>
<path fill-rule="evenodd" clip-rule="evenodd" d="M26.196 199.866H86.484V91.854H26.196V199.866Z" fill="#BFBFBF"/>
<path fill-rule="evenodd" clip-rule="evenodd" d="M26.856 199.194H85.8V92.538H26.856V199.194ZM25.512 198.55C25.512 199.655 26.4074 200.55 27.512 200.55H85.168C86.2726 200.55 87.168 199.655 87.168 198.55V93.182C87.168 92.0774 86.2726 91.182 85.168 91.182H27.512C26.4074 91.182 25.512 92.0774 25.512 93.182V198.55Z" fill="#BFBFBF"/>
<path fill-rule="evenodd" clip-rule="evenodd" d="M31.4684 199.574L24 96.5459L88.7965 93L82.0297 199.574H31.4684Z" fill="#7E7777"/>
<path fill-rule="evenodd" clip-rule="evenodd" d="M36.9056 199.574L30.2597 102.056L82.5472 99.1949L76.5442 199.574H36.9056Z" fill="#FAFAFA"/>
<path fill-rule="evenodd" clip-rule="evenodd" d="M76.5448 199.574L42.74 171.868L39.2442 101.564L30.2586 102.056L36.9063 199.574H76.5448Z" fill="#F1F1F1"/>
<path fill-rule="evenodd" clip-rule="evenodd" d="M72.8409 140.579H67.9005L66.5078 151.276H72.8409V140.579Z" fill="#7E7777"/>
<path fill-rule="evenodd" clip-rule="evenodd" d="M95.04 165.99H205.188V93.222H95.04V165.99Z" fill="#BFBFBF"/>
</svg>
