<svg width="215" height="206" viewBox="0 0 215 206" fill="none" xmlns="http://www.w3.org/2000/svg">
<g clip-path="url(#clip0)">
<path fill-rule="evenodd" clip-rule="evenodd" d="M139.071 0C151.55 0 160.981 11.3009 158.749 23.5777L150.022 71.5777C148.293 81.0875 140.01 88 130.344 88H122.095L110.677 100.131C108.703 102.229 105.369 102.229 103.395 100.131L91.9769 88H83.7273C74.0616 88 65.7789 81.0875 64.0499 71.5777L55.3226 23.5777C53.0905 11.3009 62.5219 0 75 0H139.071Z" fill="#F71117"/>
<path fill-rule="evenodd" clip-rule="evenodd" d="M82.9949 38.5004C82.9949 24.4611 93.673 13.0717 106.871 13.0007H107.119C120.317 13.0717 130.995 24.4611 130.995 38.5004C130.995 52.5836 120.25 64.0004 106.995 64.0004C93.74 64.0004 82.9949 52.5836 82.9949 38.5004ZM126.195 38.5004C126.195 49.767 117.599 58.9004 106.995 58.9004C96.391 58.9004 87.7949 49.767 87.7949 38.5004C87.7949 27.2338 96.391 18.1004 106.995 18.1004C117.599 18.1004 126.195 27.2338 126.195 38.5004Z" fill="white"/>
<path d="M52.785 143.615C54.145 143.615 55.1933 144.012 55.93 144.805C56.7233 145.598 57.0917 146.675 57.035 148.035L55.675 166.14C55.4483 168.747 54.9383 170.588 54.145 171.665C53.4083 172.742 51.9633 173.592 49.81 174.215C47.4867 175.008 44.8233 175.632 41.82 176.085C38.8733 176.538 36.0967 176.765 33.49 176.765C27.5967 176.765 22.525 175.632 18.275 173.365C14.0817 171.098 10.8517 167.84 8.585 163.59C6.375 159.34 5.27 154.297 5.27 148.46C5.27 141.773 6.545 135.965 9.095 131.035C11.645 126.048 15.2433 122.195 19.89 119.475C24.5933 116.755 30.09 115.395 36.38 115.395C40.46 115.395 44.1717 115.905 47.515 116.925C50.8583 117.945 53.5783 119.248 55.675 120.835C57.4317 122.025 58.31 123.527 58.31 125.34C58.31 126.53 57.9133 127.578 57.12 128.485C56.3267 129.392 55.335 129.845 54.145 129.845C53.2383 129.845 52.3033 129.533 51.34 128.91C49.2433 127.323 47.0333 126.162 44.71 125.425C42.4433 124.632 39.695 124.235 36.465 124.235C30.175 124.235 25.245 126.388 21.675 130.695C18.105 135.002 16.32 140.895 16.32 148.375C16.32 154.722 17.85 159.595 20.91 162.995C23.97 166.395 28.5883 168.095 34.765 168.095C38.3917 168.095 42.075 167.528 45.815 166.395L47.005 151.435H37.825C36.4083 151.435 35.3033 151.123 34.51 150.5C33.7733 149.82 33.405 148.857 33.405 147.61C33.405 146.363 33.83 145.4 34.68 144.72C35.53 143.983 36.635 143.615 37.995 143.615H52.785ZM88.1089 133.585C89.3555 133.472 90.3472 133.755 91.0839 134.435C91.8772 135.058 92.2739 135.993 92.2739 137.24C92.2739 138.94 91.8772 140.215 91.0839 141.065C90.2905 141.915 88.9022 142.453 86.9189 142.68L84.6239 142.935C80.9405 143.332 78.2489 144.38 76.5489 146.08C74.8489 147.723 73.8572 150.217 73.5739 153.56L72.1289 171.41C72.0155 173.11 71.4205 174.385 70.3439 175.235C69.2672 176.085 67.9922 176.51 66.5189 176.51C64.9889 176.51 63.7422 176.085 62.7789 175.235C61.8155 174.385 61.3905 173.11 61.5039 171.41L64.2239 138.43C64.3372 136.843 64.9322 135.653 66.0089 134.86C67.1422 134.01 68.4172 133.585 69.8339 133.585C71.3072 133.585 72.4405 133.982 73.2339 134.775C74.0839 135.568 74.4522 136.73 74.3389 138.26L74.1689 140.555C75.6422 138.458 77.5122 136.843 79.7789 135.71C82.0455 134.52 84.5105 133.84 87.1739 133.67L88.1089 133.585ZM109.022 133.415C114.632 133.415 118.825 134.69 121.602 137.24C124.379 139.79 125.767 143.643 125.767 148.8C125.767 149.877 125.739 150.698 125.682 151.265L124.067 171.58C123.954 173.167 123.415 174.385 122.452 175.235C121.545 176.085 120.299 176.51 118.712 176.51C117.239 176.51 116.049 176.057 115.142 175.15C114.292 174.187 113.924 172.968 114.037 171.495L114.122 169.88C112.989 172.033 111.402 173.705 109.362 174.895C107.322 176.085 104.999 176.68 102.392 176.68C99.6719 176.68 97.2069 176.17 94.9969 175.15C92.8436 174.073 91.1436 172.628 89.8969 170.815C88.6502 168.945 88.0269 166.848 88.0269 164.525C88.0269 161.352 88.8202 158.83 90.4069 156.96C92.0502 155.033 94.6569 153.645 98.2269 152.795C101.797 151.888 106.557 151.435 112.507 151.435H115.567L115.652 149.82C115.879 146.987 115.34 144.89 114.037 143.53C112.734 142.17 110.665 141.49 107.832 141.49C104.489 141.49 100.664 142.595 96.3569 144.805C95.6202 145.145 94.9119 145.315 94.2319 145.315C93.2119 145.315 92.3619 144.975 91.6819 144.295C91.0019 143.558 90.6619 142.68 90.6619 141.66C90.6619 140.923 90.8886 140.187 91.3419 139.45C91.7952 138.657 92.4469 138.005 93.2969 137.495C95.3369 136.248 97.7452 135.257 100.522 134.52C103.299 133.783 106.132 133.415 109.022 133.415ZM105.112 169.03C107.775 169.03 110.014 168.095 111.827 166.225C113.697 164.298 114.745 161.862 114.972 158.915L115.142 157.045H112.762C109.135 157.045 106.274 157.243 104.177 157.64C102.137 158.037 100.664 158.717 99.7569 159.68C98.8502 160.587 98.3969 161.833 98.3969 163.42C98.3969 165.12 98.9919 166.48 100.182 167.5C101.429 168.52 103.072 169.03 105.112 169.03ZM155.875 133.415C159.332 133.415 162.392 134.237 165.055 135.88C167.775 137.467 169.872 139.79 171.345 142.85C172.819 145.853 173.555 149.395 173.555 153.475C173.555 158.008 172.734 162.032 171.09 165.545C169.447 169.058 167.124 171.807 164.12 173.79C161.117 175.717 157.689 176.68 153.835 176.68C150.775 176.68 148.112 176.057 145.845 174.81C143.579 173.563 141.794 171.778 140.49 169.455L140.32 171.41C140.207 172.997 139.64 174.243 138.62 175.15C137.6 176.057 136.297 176.51 134.71 176.51C133.124 176.51 131.877 176.057 130.97 175.15C130.12 174.243 129.724 172.997 129.78 171.41L133.86 120.495C133.917 119.022 134.484 117.86 135.56 117.01C136.694 116.103 138.054 115.65 139.64 115.65C141.227 115.65 142.445 116.075 143.295 116.925C144.145 117.775 144.542 118.908 144.485 120.325L142.87 139.79C144.23 137.75 146.044 136.192 148.31 135.115C150.634 133.982 153.155 133.415 155.875 133.415ZM151.965 168.435C155.365 168.435 158.029 167.16 159.955 164.61C161.939 162.003 162.93 158.462 162.93 153.985C162.93 150.018 162.024 146.958 160.21 144.805C158.397 142.652 155.819 141.575 152.475 141.575C149.132 141.575 146.469 142.878 144.485 145.485C142.559 148.092 141.595 151.605 141.595 156.025C141.595 160.105 142.474 163.193 144.23 165.29C146.044 167.387 148.622 168.435 151.965 168.435ZM180.845 176.51C179.315 176.51 178.068 176.085 177.105 175.235C176.142 174.385 175.717 173.11 175.83 171.41L178.55 138.515C178.663 136.872 179.258 135.653 180.335 134.86C181.412 134.01 182.715 133.585 184.245 133.585C185.775 133.585 186.993 134.01 187.9 134.86C188.863 135.653 189.288 136.872 189.175 138.515L186.455 171.41C186.342 173.11 185.747 174.385 184.67 175.235C183.593 176.085 182.318 176.51 180.845 176.51ZM185.265 126.02C183.338 126.02 181.808 125.51 180.675 124.49C179.542 123.413 178.975 122.025 178.975 120.325C178.975 118.625 179.542 117.265 180.675 116.245C181.808 115.225 183.338 114.715 185.265 114.715C187.135 114.715 188.637 115.225 189.77 116.245C190.96 117.265 191.555 118.625 191.555 120.325C191.555 122.025 190.988 123.413 189.855 124.49C188.722 125.51 187.192 126.02 185.265 126.02ZM206.947 160.19C206.89 160.53 206.862 161.04 206.862 161.72C206.862 163.987 207.372 165.715 208.392 166.905C209.469 168.095 210.97 168.69 212.897 168.69C213.407 168.69 214.002 168.662 214.682 168.605C215.419 168.492 216.014 168.435 216.467 168.435C217.26 168.435 217.884 168.747 218.337 169.37C218.79 169.993 219.017 170.843 219.017 171.92C219.017 173.677 218.394 174.895 217.147 175.575C215.9 176.255 213.719 176.595 210.602 176.595C206.012 176.595 202.47 175.377 199.977 172.94C197.484 170.503 196.237 167.047 196.237 162.57C196.237 161.55 196.265 160.785 196.322 160.275L197.682 142.425H193.517C192.1 142.425 190.995 142.113 190.202 141.49C189.409 140.81 189.012 139.847 189.012 138.6C189.012 135.823 190.684 134.435 194.027 134.435H198.362L198.957 126.615C199.07 125.085 199.637 123.895 200.657 123.045C201.677 122.138 203.009 121.685 204.652 121.685C206.295 121.685 207.542 122.138 208.392 123.045C209.299 123.895 209.695 125.113 209.582 126.7L208.987 134.435H216.127C217.544 134.435 218.62 134.775 219.357 135.455C220.15 136.078 220.547 136.985 220.547 138.175C220.547 141.008 218.904 142.425 215.617 142.425H208.307L206.947 160.19Z" fill="#222A30"/>
</g>
<defs>
<clipPath id="clip0">
<rect width="215" height="206" fill="white"/>
</clipPath>
</defs>
</svg>
