<svg width="330" height="116" viewBox="0 0 330 116" fill="none" xmlns="http://www.w3.org/2000/svg">
<g clip-path="url(#clip0)">
<path fill-rule="evenodd" clip-rule="evenodd" d="M84.0715 7C96.5496 7 105.981 18.3009 103.749 30.5777L95.0216 78.5777C93.2926 88.0875 85.0099 95 75.3442 95H67.0946L55.6767 107.131C53.7026 109.229 50.3689 109.229 48.3947 107.131L36.9769 95H28.7273C19.0616 95 10.7789 88.0875 9.04987 78.5777L0.322601 30.5777C-1.90955 18.3009 7.52192 7 20 7H84.0715Z" fill="#F71117"/>
<path fill-rule="evenodd" clip-rule="evenodd" d="M27.9949 45.5004C27.9949 31.4611 38.673 20.0717 51.8708 20.0007H52.119C65.3167 20.0717 75.9949 31.4611 75.9949 45.5004C75.9949 59.5836 65.2497 71.0004 51.9949 71.0004C38.74 71.0004 27.9949 59.5836 27.9949 45.5004ZM71.1949 45.5004C71.1949 56.767 62.5987 65.9004 51.9949 65.9004C41.391 65.9004 32.7949 56.767 32.7949 45.5004C32.7949 34.2338 41.391 25.1004 51.9949 25.1004C62.5987 25.1004 71.1949 34.2338 71.1949 45.5004Z" fill="white"/>
<path d="M167.785 53.615C169.145 53.615 170.193 54.0117 170.93 54.805C171.723 55.5983 172.092 56.675 172.035 58.035L170.675 76.14C170.448 78.7467 169.938 80.5883 169.145 81.665C168.408 82.7417 166.963 83.5917 164.81 84.215C162.487 85.0083 159.823 85.6317 156.82 86.085C153.873 86.5383 151.097 86.765 148.49 86.765C142.597 86.765 137.525 85.6317 133.275 83.365C129.082 81.0983 125.852 77.84 123.585 73.59C121.375 69.34 120.27 64.2967 120.27 58.46C120.27 51.7733 121.545 45.965 124.095 41.035C126.645 36.0483 130.243 32.195 134.89 29.475C139.593 26.755 145.09 25.395 151.38 25.395C155.46 25.395 159.172 25.905 162.515 26.925C165.858 27.945 168.578 29.2483 170.675 30.835C172.432 32.025 173.31 33.5267 173.31 35.34C173.31 36.53 172.913 37.5783 172.12 38.485C171.327 39.3917 170.335 39.845 169.145 39.845C168.238 39.845 167.303 39.5333 166.34 38.91C164.243 37.3233 162.033 36.1617 159.71 35.425C157.443 34.6317 154.695 34.235 151.465 34.235C145.175 34.235 140.245 36.3883 136.675 40.695C133.105 45.0017 131.32 50.895 131.32 58.375C131.32 64.7217 132.85 69.595 135.91 72.995C138.97 76.395 143.588 78.095 149.765 78.095C153.392 78.095 157.075 77.5283 160.815 76.395L162.005 61.435H152.825C151.408 61.435 150.303 61.1233 149.51 60.5C148.773 59.82 148.405 58.8567 148.405 57.61C148.405 56.3633 148.83 55.4 149.68 54.72C150.53 53.9833 151.635 53.615 152.995 53.615H167.785ZM203.109 43.585C204.356 43.4717 205.347 43.755 206.084 44.435C206.877 45.0583 207.274 45.9933 207.274 47.24C207.274 48.94 206.877 50.215 206.084 51.065C205.291 51.915 203.902 52.4533 201.919 52.68L199.624 52.935C195.941 53.3317 193.249 54.38 191.549 56.08C189.849 57.7233 188.857 60.2167 188.574 63.56L187.129 81.41C187.016 83.11 186.421 84.385 185.344 85.235C184.267 86.085 182.992 86.51 181.519 86.51C179.989 86.51 178.742 86.085 177.779 85.235C176.816 84.385 176.391 83.11 176.504 81.41L179.224 48.43C179.337 46.8433 179.932 45.6533 181.009 44.86C182.142 44.01 183.417 43.585 184.834 43.585C186.307 43.585 187.441 43.9817 188.234 44.775C189.084 45.5683 189.452 46.73 189.339 48.26L189.169 50.555C190.642 48.4583 192.512 46.8433 194.779 45.71C197.046 44.52 199.511 43.84 202.174 43.67L203.109 43.585ZM224.022 43.415C229.632 43.415 233.825 44.69 236.602 47.24C239.379 49.79 240.767 53.6433 240.767 58.8C240.767 59.8767 240.739 60.6983 240.682 61.265L239.067 81.58C238.954 83.1667 238.415 84.385 237.452 85.235C236.545 86.085 235.299 86.51 233.712 86.51C232.239 86.51 231.049 86.0567 230.142 85.15C229.292 84.1867 228.924 82.9683 229.037 81.495L229.122 79.88C227.989 82.0333 226.402 83.705 224.362 84.895C222.322 86.085 219.999 86.68 217.392 86.68C214.672 86.68 212.207 86.17 209.997 85.15C207.844 84.0733 206.144 82.6283 204.897 80.815C203.65 78.945 203.027 76.8483 203.027 74.525C203.027 71.3517 203.82 68.83 205.407 66.96C207.05 65.0333 209.657 63.645 213.227 62.795C216.797 61.8883 221.557 61.435 227.507 61.435H230.567L230.652 59.82C230.879 56.9867 230.34 54.89 229.037 53.53C227.734 52.17 225.665 51.49 222.832 51.49C219.489 51.49 215.664 52.595 211.357 54.805C210.62 55.145 209.912 55.315 209.232 55.315C208.212 55.315 207.362 54.975 206.682 54.295C206.002 53.5583 205.662 52.68 205.662 51.66C205.662 50.9233 205.889 50.1867 206.342 49.45C206.795 48.6567 207.447 48.005 208.297 47.495C210.337 46.2483 212.745 45.2567 215.522 44.52C218.299 43.7833 221.132 43.415 224.022 43.415ZM220.112 79.03C222.775 79.03 225.014 78.095 226.827 76.225C228.697 74.2983 229.745 71.8617 229.972 68.915L230.142 67.045H227.762C224.135 67.045 221.274 67.2433 219.177 67.64C217.137 68.0367 215.664 68.7167 214.757 69.68C213.85 70.5867 213.397 71.8333 213.397 73.42C213.397 75.12 213.992 76.48 215.182 77.5C216.429 78.52 218.072 79.03 220.112 79.03ZM270.875 43.415C274.332 43.415 277.392 44.2367 280.055 45.88C282.775 47.4667 284.872 49.79 286.345 52.85C287.819 55.8533 288.555 59.395 288.555 63.475C288.555 68.0083 287.734 72.0317 286.09 75.545C284.447 79.0583 282.124 81.8067 279.12 83.79C276.117 85.7167 272.689 86.68 268.835 86.68C265.775 86.68 263.112 86.0567 260.845 84.81C258.579 83.5633 256.794 81.7783 255.49 79.455L255.32 81.41C255.207 82.9967 254.64 84.2433 253.62 85.15C252.6 86.0567 251.297 86.51 249.71 86.51C248.124 86.51 246.877 86.0567 245.97 85.15C245.12 84.2433 244.724 82.9967 244.78 81.41L248.86 30.495C248.917 29.0217 249.484 27.86 250.56 27.01C251.694 26.1033 253.054 25.65 254.64 25.65C256.227 25.65 257.445 26.075 258.295 26.925C259.145 27.775 259.542 28.9083 259.485 30.325L257.87 49.79C259.23 47.75 261.044 46.1917 263.31 45.115C265.634 43.9817 268.155 43.415 270.875 43.415ZM266.965 78.435C270.365 78.435 273.029 77.16 274.955 74.61C276.939 72.0033 277.93 68.4617 277.93 63.985C277.93 60.0183 277.024 56.9583 275.21 54.805C273.397 52.6517 270.819 51.575 267.475 51.575C264.132 51.575 261.469 52.8783 259.485 55.485C257.559 58.0917 256.595 61.605 256.595 66.025C256.595 70.105 257.474 73.1933 259.23 75.29C261.044 77.3867 263.622 78.435 266.965 78.435ZM295.845 86.51C294.315 86.51 293.068 86.085 292.105 85.235C291.142 84.385 290.717 83.11 290.83 81.41L293.55 48.515C293.663 46.8717 294.258 45.6533 295.335 44.86C296.412 44.01 297.715 43.585 299.245 43.585C300.775 43.585 301.993 44.01 302.9 44.86C303.863 45.6533 304.288 46.8717 304.175 48.515L301.455 81.41C301.342 83.11 300.747 84.385 299.67 85.235C298.593 86.085 297.318 86.51 295.845 86.51ZM300.265 36.02C298.338 36.02 296.808 35.51 295.675 34.49C294.542 33.4133 293.975 32.025 293.975 30.325C293.975 28.625 294.542 27.265 295.675 26.245C296.808 25.225 298.338 24.715 300.265 24.715C302.135 24.715 303.637 25.225 304.77 26.245C305.96 27.265 306.555 28.625 306.555 30.325C306.555 32.025 305.988 33.4133 304.855 34.49C303.722 35.51 302.192 36.02 300.265 36.02ZM321.947 70.19C321.89 70.53 321.862 71.04 321.862 71.72C321.862 73.9867 322.372 75.715 323.392 76.905C324.469 78.095 325.97 78.69 327.897 78.69C328.407 78.69 329.002 78.6617 329.682 78.605C330.419 78.4917 331.014 78.435 331.467 78.435C332.26 78.435 332.884 78.7467 333.337 79.37C333.79 79.9933 334.017 80.8433 334.017 81.92C334.017 83.6767 333.394 84.895 332.147 85.575C330.9 86.255 328.719 86.595 325.602 86.595C321.012 86.595 317.47 85.3767 314.977 82.94C312.484 80.5033 311.237 77.0467 311.237 72.57C311.237 71.55 311.265 70.785 311.322 70.275L312.682 52.425H308.517C307.1 52.425 305.995 52.1133 305.202 51.49C304.409 50.81 304.012 49.8467 304.012 48.6C304.012 45.8233 305.684 44.435 309.027 44.435H313.362L313.957 36.615C314.07 35.085 314.637 33.895 315.657 33.045C316.677 32.1383 318.009 31.685 319.652 31.685C321.295 31.685 322.542 32.1383 323.392 33.045C324.299 33.895 324.695 35.1133 324.582 36.7L323.987 44.435H331.127C332.544 44.435 333.62 44.775 334.357 45.455C335.15 46.0783 335.547 46.985 335.547 48.175C335.547 51.0083 333.904 52.425 330.617 52.425H323.307L321.947 70.19Z" fill="#222A30"/>
</g>
<defs>
<clipPath id="clip0">
<rect width="330" height="116" fill="white"/>
</clipPath>
</defs>
</svg>
