<svg width="449" height="215" viewBox="0 0 449 215" fill="none" xmlns="http://www.w3.org/2000/svg">
<path fill-rule="evenodd" clip-rule="evenodd" d="M123.572 155.485L132.224 143.893L82.5924 106.861L68.5884 125.641L123.572 155.485Z" fill="#394A63"/>
<path fill-rule="evenodd" clip-rule="evenodd" d="M116.621 204.444L126.185 205.38L132.221 143.76L116.741 142.236L116.621 204.444Z" fill="#394A63"/>
<path fill-rule="evenodd" clip-rule="evenodd" d="M114.828 210.805L122.676 211.717L122.796 210.721L133.068 212.917L141.996 213.925L142.332 211.069L125.712 204.193L115.74 202.957L114.828 210.805Z" fill="#332F2D"/>
<path fill-rule="evenodd" clip-rule="evenodd" d="M57.396 166.594L71.244 170.806L89.256 111.562L66.84 104.758L57.396 166.594Z" fill="#394A63"/>
<path fill-rule="evenodd" clip-rule="evenodd" d="M8.9988 176.677L11.3508 185.977L71.3868 170.761L67.5588 155.665L8.9988 176.677Z" fill="#394A63"/>
<path fill-rule="evenodd" clip-rule="evenodd" d="M2.4 177.13L4.212 184.834L5.184 184.594L6.612 195.01L8.688 203.758L11.484 203.098L12.312 185.134L10.092 175.33L2.4 177.13Z" fill="#332F2D"/>
<path fill-rule="evenodd" clip-rule="evenodd" d="M2.4 177.13L4.212 184.834L5.184 184.594L6.612 195.01L8.688 203.758L10.272 203.374L3.984 176.758L2.4 177.13Z" fill="#635D5A"/>
<path fill-rule="evenodd" clip-rule="evenodd" d="M141.689 82.7936C142.073 84.6176 143.873 85.7696 145.685 85.3976L153.929 83.6576C155.741 83.2736 156.917 81.4856 156.509 79.6496C156.137 77.8256 154.337 76.6616 152.501 77.0456L144.305 78.7736C142.469 79.1576 141.305 80.9576 141.689 82.7936Z" fill="#FFDEC5"/>
<path fill-rule="evenodd" clip-rule="evenodd" d="M83.4708 58.418C82.2228 55.574 83.5428 52.274 86.3868 51.05C88.6548 50.09 91.1748 50.714 92.7348 52.43C92.7348 52.43 93.3948 53.294 93.5628 53.594C97.4628 59.63 116.987 86.438 148.571 77.726C149.531 80.894 149.651 81.254 149.963 84.422C104.495 99.434 83.5668 58.658 83.5668 58.658L83.5788 58.646C83.5668 58.574 83.4948 58.502 83.4708 58.418Z" fill="#506A91"/>
<mask id="mask0" mask-type="alpha" maskUnits="userSpaceOnUse" x="2" y="0" width="446" height="214">
<path fill-rule="evenodd" clip-rule="evenodd" d="M2.4 213.926H447.876V0.205933H2.4V213.926Z" fill="white"/>
</mask>
<g mask="url(#mask0)">
<path fill-rule="evenodd" clip-rule="evenodd" d="M118.296 104.51C118.296 107.161 120.445 109.31 123.096 109.31H175.116C177.767 109.31 179.916 107.161 179.916 104.51V52.4899C179.916 49.839 177.767 47.6899 175.116 47.6899H123.096C120.445 47.6899 118.296 49.839 118.296 52.4899V104.51Z" fill="#F71117"/>
<path fill-rule="evenodd" clip-rule="evenodd" d="M125.436 102.17H172.752V54.866H125.436V102.17Z" fill="#F71117"/>
<path fill-rule="evenodd" clip-rule="evenodd" d="M130.716 96.8779H167.472V60.1219H130.716V96.8779Z" fill="#F71117"/>
<path fill-rule="evenodd" clip-rule="evenodd" d="M167.856 70.7484C168.627 66.5056 165.368 62.6 161.055 62.6H138.912C134.6 62.6 131.34 66.5056 132.111 70.7484L135.128 87.3372C135.725 90.6238 138.588 93.0128 141.928 93.0128H144.779L148.725 97.2054C149.408 97.9303 150.56 97.9303 151.242 97.2054L155.188 93.0128H158.039C161.379 93.0128 164.242 90.6238 164.839 87.3372L167.856 70.7484ZM158.264 75.9057C158.264 80.7729 154.55 84.7185 149.969 84.7185C145.389 84.7185 141.675 80.7729 141.675 75.9057C141.675 71.0385 145.389 67.0929 149.969 67.0929C154.55 67.0929 158.264 71.0385 158.264 75.9057ZM149.969 82.9559C153.634 82.9559 156.605 79.7994 156.605 75.9057C156.605 72.012 153.634 68.8555 149.969 68.8555C146.305 68.8555 143.334 72.012 143.334 75.9057C143.334 79.7994 146.305 82.9559 149.969 82.9559Z" fill="white"/>
<path fill-rule="evenodd" clip-rule="evenodd" d="M139.896 90.3524C140.04 92.1044 141.576 93.4244 143.316 93.2924L151.224 92.6564C152.988 92.5364 154.284 91.0004 154.14 89.2364C154.008 87.4844 152.484 86.1524 150.732 86.3084L142.824 86.9204C141.084 87.0644 139.752 88.6004 139.896 90.3524Z" fill="#FFDEC5"/>
<path fill-rule="evenodd" clip-rule="evenodd" d="M87.408 42.2815L96.36 44.2855L98.436 35.0815L89.472 33.0655L87.408 42.2815Z" fill="#FFDEC5"/>
<path fill-rule="evenodd" clip-rule="evenodd" d="M65.424 110.31L88.62 111.882L100.536 44.2856L82.872 40.1936L65.424 110.31Z" fill="#637EA8"/>
<path fill-rule="evenodd" clip-rule="evenodd" d="M86.916 14.0516C85.296 20.5436 85.464 26.9396 90.168 29.3516L88.596 36.9596L97.572 38.9276C104.076 40.5356 106.416 36.2036 108.012 29.7116L111.288 29.9396L110.172 20.9156L110.928 17.8556C112.536 11.3636 108.564 4.79959 102.072 3.20359C95.556 1.59559 88.992 5.57959 87.396 12.0716L86.916 14.0516Z" fill="#FFDEC5"/>
<path fill-rule="evenodd" clip-rule="evenodd" d="M88.146 23.3443C92.526 24.6283 91.698 16.3963 96.126 17.9083C100.026 19.2283 96.546 22.5763 98.646 23.3443C101.97 24.5683 99.45 11.7403 106.482 13.1563C113.322 14.5483 105.93 10.9723 106.35 6.71234C102.234 9.62834 109.182 2.15234 102.678 0.568338C96.198 -1.03966 89.622 2.93234 88.014 9.42434C88.014 9.42434 82.494 21.6763 88.146 23.3443Z" fill="#753A13"/>
<path fill-rule="evenodd" clip-rule="evenodd" d="M83.2128 58.454C82.3848 55.466 84.1248 52.382 87.1008 51.554C89.4768 50.894 91.9008 51.866 93.2208 53.786C93.2208 53.786 93.7608 54.722 93.8568 55.046C96.9288 61.562 112.601 90.794 145.049 86.474C145.577 89.738 145.649 90.134 145.541 93.302C98.4408 101.978 83.2728 58.706 83.2728 58.706L83.2968 58.694C83.2608 58.598 83.2248 58.538 83.2128 58.454Z" fill="#728EB7"/>
<path fill-rule="evenodd" clip-rule="evenodd" d="M104.33 21.8204C104.126 22.4324 104.498 23.0804 105.098 23.2724C105.722 23.4764 106.382 23.1284 106.574 22.5164C106.766 21.8924 106.406 21.2324 105.794 21.0524C105.17 20.8484 104.522 21.1964 104.33 21.8204Z" fill="#3F3F3F"/>
<path fill-rule="evenodd" clip-rule="evenodd" d="M104.119 19.0088L108.331 20.3048L108.559 19.5728L104.359 18.2648L104.119 19.0088Z" fill="#3F3F3F"/>
<path fill-rule="evenodd" clip-rule="evenodd" d="M142.193 212.31L142.001 213.93L133.061 212.91L122.801 210.714L122.681 211.71L114.833 210.81L115.001 209.19L142.193 212.31Z" fill="#635D5A"/>
<path fill-rule="evenodd" clip-rule="evenodd" d="M92.9628 20.9887C92.5188 22.5127 93.1308 24.0607 94.3548 24.4327C95.5908 24.8047 96.9588 23.8807 97.4388 22.3567C97.9068 20.8207 97.2828 19.2727 96.0468 18.9007C94.8108 18.5287 93.4308 19.4527 92.9628 20.9887Z" fill="#FFEBDE"/>
<path fill-rule="evenodd" clip-rule="evenodd" d="M93.8184 21.2467C93.5424 22.1947 93.9264 23.1427 94.6704 23.3707C95.4384 23.5987 96.2784 23.0107 96.5664 22.0747C96.8664 21.1507 96.4944 20.1907 95.7144 19.9747C94.9584 19.7347 94.1184 20.3107 93.8184 21.2467Z" fill="#F2D0B8"/>
<path fill-rule="evenodd" clip-rule="evenodd" d="M102.865 0.574353C95.1252 -1.21365 87.3972 3.61035 85.6092 11.3504L113.653 17.8304C115.441 10.0904 110.617 2.35035 102.865 0.574353Z" fill="#4A6182"/>
<path fill-rule="evenodd" clip-rule="evenodd" d="M121.733 19.5116L111.761 17.4116L112.073 15.9476L122.033 18.0596L121.733 19.5116Z" fill="#4A6182"/>
</g>
</svg>
