<svg width="106" height="102" viewBox="0 0 106 102" fill="none" xmlns="http://www.w3.org/2000/svg">
<path fill-rule="evenodd" clip-rule="evenodd" d="M104.689 23.5652C106.912 11.2921 97.4821 0 85.0092 0H20.9873C8.51444 0 -0.915719 11.292 1.3077 23.5652L10.0497 71.8208C11.7736 81.3364 20.0589 88.2556 29.7294 88.2556H37.9503L49.3511 100.413C51.3264 102.519 54.6702 102.519 56.6455 100.413L68.0462 88.2556H76.2671C85.9377 88.2556 94.2229 81.3364 95.9468 71.8208L104.689 23.5652ZM52.8336 13.0384C39.6453 13.1095 28.9747 24.532 28.9747 38.6121C28.9747 52.7363 39.7122 64.1862 52.9575 64.1862C66.2027 64.1862 76.9402 52.7363 76.9402 38.6121C76.9402 24.532 66.2696 13.1095 53.0813 13.0384H52.8336ZM52.9575 59.0714C63.5537 59.0714 72.1436 49.9115 72.1436 38.6121C72.1436 27.3128 63.5537 18.1529 52.9575 18.1529C42.3612 18.1529 33.7713 27.3128 33.7713 38.6121C33.7713 49.9115 42.3612 59.0714 52.9575 59.0714Z" fill="#F71117"/>
</svg>
